<?xml version="1.0" standalone="no"?><!DOCTYPE svg PUBLIC "-//W3C//DTD SVG 1.1//EN" "http://www.w3.org/Graphics/SVG/1.1/DTD/svg11.dtd"><svg t="1587733347177" class="icon" viewBox="0 0 1024 1024" version="1.1" xmlns="http://www.w3.org/2000/svg" p-id="6464" xmlns:xlink="http://www.w3.org/1999/xlink" width="32" height="32"><defs><style type="text/css"></style></defs><path d="M393.528889 1009.777778a80.64 80.64 0 1 1 80.64-80.64A80.64 80.64 0 0 1 393.528889 1009.777778z m373.333333 0a80.64 80.64 0 1 1 80.64-80.64A80.64 80.64 0 0 1 766.862222 1009.777778z m218.595556-752.64l-74.097778 304.071111c-7.68 28.444444-35.271111 53.048889-64 45.368889h-483.555556L384 687.217778h436.622222a53.76 53.76 0 0 1 0 107.52H363.662222a40.248889 40.248889 0 0 1-17.351111 0h-9.528889a53.76 53.76 0 0 1-53.76-53.76l-122.311111-477.155556a53.333333 53.333333 0 0 1-12.088889-33.564444 54.755556 54.755556 0 0 1 0.995556-9.671111L124.444444 122.737778h-56.888888a53.76 53.76 0 0 1 0-107.52h80.64a40.533333 40.533333 0 0 1 17.351111 0h9.528889a53.76 53.76 0 0 1 53.76 53.76L256 176.497778h654.222222a42.666667 42.666667 0 0 1 21.475556 0 53.76 53.76 0 0 1 53.76 53.76 56.888889 56.888889 0 0 1 0 6.115555 42.666667 42.666667 0 0 1 0 20.764445z m0 0" p-id="6465" fill="#ffffff"></path></svg>